<svg width="56" height="56" viewBox="0 0 56 56" fill="none" xmlns="http://www.w3.org/2000/svg">
<rect width="56" height="56" rx="28" fill="url(#paint0_linear_1347_1076)"/>
<path d="M24.8095 13.623C24.4681 13.5279 24.1014 13.5628 23.7864 13.7204C23.4713 13.878 23.2325 14.1461 23.1201 14.4682C23.0076 14.7904 23.0302 15.1416 23.1832 15.4482C23.3362 15.7547 23.6076 15.9928 23.9405 16.1123L27.125 17.1259V20.1194C27.125 20.4676 27.2699 20.8016 27.5277 21.0478C27.7856 21.294 28.1353 21.4323 28.5 21.4323C28.8647 21.4323 29.2144 21.294 29.4723 21.0478C29.7301 20.8016 29.875 20.4676 29.875 20.1194V17.1233L33.0595 16.1097C33.2371 16.0602 33.4023 15.9771 33.5455 15.8652C33.6886 15.7533 33.8066 15.6151 33.8924 15.4586C33.9783 15.3022 34.0302 15.1308 34.045 14.9548C34.0599 14.7787 34.0374 14.6016 33.9789 14.4341C33.9204 14.2665 33.8272 14.112 33.7046 13.9797C33.5821 13.8473 33.4329 13.74 33.266 13.664C33.099 13.588 32.9177 13.545 32.7329 13.5375C32.5481 13.53 32.3636 13.5582 32.1905 13.6204L28.5 14.7968L24.8095 13.623ZM29.677 7.16335C28.9098 6.94555 28.0929 6.94555 27.3258 7.16335L19.447 9.39534C18.8841 9.55505 18.3904 9.88425 18.0396 10.3338C17.6887 10.7834 17.4994 11.3292 17.5 11.8899V23.0761C17.4991 23.6426 17.6901 24.1942 18.0445 24.6485C18.3989 25.1028 18.8976 25.4355 19.4663 25.597L27.1443 27.7738C27.1314 27.8467 27.1249 27.9205 27.125 27.9944V30.6203H23C21.5413 30.6203 20.1424 31.1736 19.1109 32.1585C18.0795 33.1433 17.5 34.4791 17.5 35.872V36.0033C15.8307 36.3287 14.3474 37.2343 13.3376 38.5446C12.3279 39.8549 11.8636 41.4765 12.0348 43.0951C12.2061 44.7137 13.0006 46.2139 14.2644 47.3049C15.5282 48.3959 17.1713 49 18.875 49C20.5787 49 22.2218 48.3959 23.4856 47.3049C24.7494 46.2139 25.5439 44.7137 25.7152 43.0951C25.8864 41.4765 25.4222 39.8549 24.4124 38.5446C23.4026 37.2343 21.9193 36.3287 20.25 36.0033V35.872C20.25 35.1756 20.5397 34.5077 21.0555 34.0152C21.5712 33.5228 22.2707 33.2461 23 33.2461H34C34.7293 33.2461 35.4288 33.5228 35.9445 34.0152C36.4603 34.5077 36.75 35.1756 36.75 35.872V36.0033C35.0807 36.3287 33.5974 37.2343 32.5876 38.5446C31.5778 39.8549 31.1136 41.4765 31.2848 43.0951C31.4561 44.7137 32.2506 46.2139 33.5144 47.3049C34.7782 48.3959 36.4213 49 38.125 49C39.8287 49 41.4718 48.3959 42.7356 47.3049C43.9994 46.2139 44.7939 44.7137 44.9652 43.0951C45.1364 41.4765 44.6721 39.8549 43.6624 38.5446C42.6526 37.2343 41.1693 36.3287 39.5 36.0033V35.872C39.5 34.4791 38.9205 33.1433 37.8891 32.1585C36.8576 31.1736 35.4587 30.6203 34 30.6203H29.875V27.9944C29.8752 27.9196 29.8687 27.8449 29.8558 27.7712L37.5337 25.5917C38.101 25.4306 38.5988 25.0991 38.953 24.6464C39.3073 24.1937 39.4991 23.6439 39.5 23.0788V11.9083C39.5003 11.3423 39.309 10.7913 38.9547 10.3375C38.6004 9.88373 38.1019 9.55141 37.5337 9.39009L29.6742 7.16073L29.677 7.16335ZM28.1095 9.67894C28.3644 9.60685 28.6356 9.60685 28.8905 9.67894L36.75 11.9083V23.0788L28.8905 25.3081C28.6356 25.3802 28.3644 25.3802 28.1095 25.3081L20.25 23.0761V11.9109L28.1095 9.67894ZM14.75 42.4367C14.75 41.392 15.1846 40.3902 15.9582 39.6515C16.7318 38.9128 17.781 38.4979 18.875 38.4979C19.969 38.4979 21.0182 38.9128 21.7918 39.6515C22.5654 40.3902 23 41.392 23 42.4367C23 43.4813 22.5654 44.4832 21.7918 45.2218C21.0182 45.9605 19.969 46.3755 18.875 46.3755C17.781 46.3755 16.7318 45.9605 15.9582 45.2218C15.1846 44.4832 14.75 43.4813 14.75 42.4367ZM38.125 38.4979C39.219 38.4979 40.2682 38.9128 41.0418 39.6515C41.8154 40.3902 42.25 41.392 42.25 42.4367C42.25 43.4813 41.8154 44.4832 41.0418 45.2218C40.2682 45.9605 39.219 46.3755 38.125 46.3755C37.031 46.3755 35.9818 45.9605 35.2082 45.2218C34.4346 44.4832 34 43.4813 34 42.4367C34 41.392 34.4346 40.3902 35.2082 39.6515C35.9818 38.9128 37.031 38.4979 38.125 38.4979Z" fill="white"/>
<defs>
<linearGradient id="paint0_linear_1347_1076" x1="28" y1="0" x2="28" y2="56" gradientUnits="userSpaceOnUse">
<stop stop-color="#74FF82"/>
<stop offset="1" stop-color="#30E842"/>
</linearGradient>
</defs>
</svg>
