<svg width="56" height="56" viewBox="0 0 56 56" fill="none" xmlns="http://www.w3.org/2000/svg">
<rect width="56" height="56" rx="28" fill="url(#paint0_linear_1347_1074)"/>
<path d="M38.2857 18C38.2857 23.5234 33.6812 28 27.9277 28C22.3188 28 17.642 23.5234 17.642 18C17.642 12.4773 22.3188 8 27.9277 8C33.6812 8 38.2857 12.4773 38.2857 18ZM33.0705 36.2812C30.925 36.8359 29.2134 38.7969 29.2134 41.125V43C29.2134 43.3281 29.4223 43.6484 29.6634 43.8828L30.9491 45.1328C31.4473 45.625 32.267 45.625 32.7652 45.1328C33.2714 44.6484 33.2714 43.8516 32.7652 43.3672L31.7848 42.4844V41.125C31.7848 39.7422 33.0063 38.625 34.3563 38.625C35.8509 38.625 37 39.7422 37 41.125V42.4844L36.092 43.3672C35.5857 43.8516 35.5857 44.6484 36.092 45.1328C36.5902 45.625 37.4098 45.625 37.908 45.1328L39.1937 43.8828C39.4348 43.6484 39.5714 43.3281 39.5714 43V41.125C39.5714 38.7969 37.9321 36.8359 35.7143 36.2812V32.125C41.6205 33.5234 46 38.6328 46 44.875V45.5C46 46.8828 44.8509 48 43.4286 48H12.5714C11.1515 48 10 46.8828 10 45.5V44.875C10 38.7031 14.3819 33.5234 20.2857 32.125V36.9297C18.4295 37.4688 17.0714 39.1406 17.0714 41.125C17.0714 43.5391 19.0884 45.5 21.5714 45.5C24.0545 45.5 26.0714 43.5391 26.0714 41.125C26.0714 39.1406 24.7134 37.4688 22.8571 36.9297V31.7656C23.0741 31.7578 23.283 31.75 23.5 31.75H32.5C32.717 31.75 32.9259 31.7578 33.1429 31.7656L33.0705 36.2812ZM23.4277 41.125C23.4277 42.1641 22.6402 43 21.4991 43C20.5027 43 19.5705 42.1641 19.5705 41.125C19.5705 40.0859 20.5027 39.25 21.4991 39.25C22.6402 39.25 23.4277 40.0859 23.4277 41.125Z" fill="white"/>
<defs>
<linearGradient id="paint0_linear_1347_1074" x1="28" y1="0" x2="28" y2="56" gradientUnits="userSpaceOnUse">
<stop stop-color="#0089FF"/>
<stop offset="1" stop-color="#0E406B" stop-opacity="0.76"/>
</linearGradient>
</defs>
</svg>
