<svg width="56" height="56" viewBox="0 0 56 56" fill="none" xmlns="http://www.w3.org/2000/svg">
<rect width="56" height="56" rx="28" fill="url(#paint0_linear_1347_1077)"/>
<path d="M34.8339 14V18.64C32.6267 18.64 30.5187 19.0251 28.5445 19.6956L27.915 18.3639L28.9923 17.8964L28.0225 15.776L23.6608 17.661L24.6306 19.7814L25.7318 19.3058L26.3433 20.5888C25.0462 21.222 23.827 21.9956 22.7089 22.8949L21.7701 21.9251L22.6384 21.1502L21.0248 19.4381L17.5063 22.5782L19.121 24.2904L20.0072 23.4969L20.9687 24.4806C19.8208 25.6629 18.8386 26.987 18.0473 28.4188L16.755 27.7982L17.2925 26.7739L15.1642 25.7218L13 29.8595L15.1271 30.9105L15.673 29.8642L17.0405 30.5254C16.3329 32.2901 15.9091 34.1501 15.784 36.04H13.3356V43H42V14H34.8339ZM37.2226 16.32H39.6113V36.04H18.1727C18.7854 27.6033 25.9897 20.96 34.8339 20.96H37.2226V16.32ZM30.0565 24.3855C29.53 24.3851 29.0182 24.5536 28.6005 24.8648C28.1827 25.176 27.8824 25.6124 27.7463 26.1063C27.6101 26.6002 27.6457 27.124 27.8475 27.5963C28.0493 28.0686 28.4059 28.4629 28.8622 28.7181V33.72H34.8339V31.4H31.2509V28.7134C31.7069 28.4587 32.0635 28.0648 32.2651 27.5929C32.4668 27.121 32.5023 26.5976 32.3661 26.1041C32.2299 25.6107 31.9296 25.1747 31.5119 24.8641C31.0942 24.5535 30.5826 24.3856 30.0565 24.3866V24.3855ZM15.7243 38.36H39.6113V40.68H15.7243V38.36Z" fill="white"/>
<defs>
<linearGradient id="paint0_linear_1347_1077" x1="28" y1="0" x2="28" y2="56" gradientUnits="userSpaceOnUse">
<stop stop-color="#FFE974"/>
<stop offset="1" stop-color="#FFC702"/>
</linearGradient>
</defs>
</svg>
